<?xml version="1.0" encoding="iso-8859-1"?>
<!-- Generator: Adobe Illustrator 13.0.0, SVG Export Plug-In . SVG Version: 6.00 Build 14948)  -->
<!DOCTYPE svg PUBLIC "-//W3C//DTD SVG 1.1//EN" "http://www.w3.org/Graphics/SVG/1.1/DTD/svg11.dtd">
<svg xmlns="http://www.w3.org/2000/svg" xmlns:xlink="http://www.w3.org/1999/xlink" version="1.1" id="Layer_1" x="0px" y="0px" width="100px" height="100px" viewBox="0 0 100 100" enable-background="new 0 0 100 100" xml:space="preserve">












<g>
	<path fill-rule="evenodd" clip-rule="evenodd" fill="#8A715A" d="M61.076,32.958c-2.482-1.205-5.164-2.507-8.054-3.856   c-3.134-1.46-6.557-3.054-10.306-4.672c-8.83-3.815-17.652,0.802-17.652,12.408c0,7.898,0,16.828,0,26.907   c0,20.513,14.121,36.093,26.981,31.176c9.363-3.575,16.714-6.386,22.641-8.655c4.887-1.868,8.985-3.437,12.475-4.771   c0.096-0.034,0.189-0.071,0.288-0.114c-1.826-5.377-3.552-10.433-5.195-15.202c-1.529-0.085-3.165-0.176-4.925-0.248   c-1.887-0.08-3.917-0.158-6.112-0.201c-1.961-0.043-4.064-0.074-6.326-0.08c-2.426-0.006-5.068,0.025-7.916,0.085   c-3.239,0.072-6.798-4.744-7.619-10.354c-0.452-3.089-0.908-6.069-1.359-8.918c-0.716-4.555,1.238-7.337,4.147-6.441   c2.336,0.71,4.539,1.429,6.606,2.122c1.947,0.646,3.789,1.285,5.537,1.898C63.164,40.124,62.099,36.437,61.076,32.958z"/>
	<path fill-rule="evenodd" clip-rule="evenodd" fill="#52B1AE" d="M60.19,61.037c3.246,0.194,6.197,0.402,8.88,0.633   c2.47,0.22,4.731,0.443,6.822,0.687c3.791,0.438,4.268-5.554,1.748-12.671c-1.39-3.917-2.703-7.627-3.953-11.156   c-1.974-5.577-6.221-11.485-9.911-13.724c-3.991-2.419-8.504-5.157-13.624-8.26C44.29,12.981,37.483,8.856,29.521,4.026   c-0.28-0.171-0.553-0.329-0.825-0.481c0.187,3.728,0.377,7.732,0.58,12.044c4.489,2.001,8.569,3.856,12.295,5.615   c3.411,1.62,6.563,3.163,9.484,4.588c2.267,1.13,4.404,2.207,6.416,3.235c1.909,0.968,3.723,1.898,5.444,2.792   c1.689,0.884,3.717,3.747,4.609,6.504c0.541,1.678,1.102,3.413,1.665,5.182c0.99,3.115,0.464,5.341-1.271,4.789   c-1.609-0.518-3.313-1.042-5.097-1.571c-1.903-0.559-3.929-1.125-6.066-1.721C57.846,49.917,58.987,55.253,60.19,61.037z"/>
</g>
</svg>
