<?xml version="1.0" encoding="utf-8"?>
<!-- Generator: Adobe Illustrator 18.1.0, SVG Export Plug-In . SVG Version: 6.00 Build 0)  -->
<svg version="1.1" id="Layer_1" xmlns="http://www.w3.org/2000/svg" xmlns:xlink="http://www.w3.org/1999/xlink" x="0px" y="0px"
	 viewBox="0 0 150 150" enable-background="new 0 0 150 150" xml:space="preserve">
<g>
	<path fill="none" d="M24.4,59.5c1.8,0.6,3.1,0.3,3.4-0.6l0,0c0.3-1-0.7-1.8-2.5-2.3c-1.7-0.5-3-0.4-3.3,0.6
		C21.7,58.1,22.6,59,24.4,59.5z"/>
	<path fill="none" d="M23.1,72.2c1.9,0,2.9-0.7,2.9-1.6v0c0-1-1.1-1.5-3-1.4c-1.8,0.1-3,0.6-2.9,1.6C20.1,71.7,21.3,72.2,23.1,72.2z
		"/>
	<path fill="none" d="M27.8,44.9c-0.5,0.7,0.1,1.9,1.6,2.9c1.6,1.1,2.8,1.3,3.4,0.5l0,0c0.6-0.8-0.1-1.9-1.7-3
		C29.7,44.3,28.4,44,27.8,44.9z"/>
	<path fill="none" d="M26.1,84.6c1.8-0.6,2.7-1.6,2.4-2.4l0,0c-0.3-0.9-1.6-1-3.4-0.3c-1.7,0.6-2.7,1.5-2.3,2.4
		C23.1,85,24.4,85.2,26.1,84.6z"/>
	<path fill="none" d="M39.7,105.3c0.8,0.5,1.9-0.2,2.9-1.7c1.1-1.6,1.2-2.9,0.4-3.4l0,0c-0.8-0.5-1.9,0.2-2.9,1.8
		C39.1,103.5,38.8,104.7,39.7,105.3z"/>
	<path fill="none" d="M32.8,95.4c1.5-1.2,2-2.4,1.5-3.1l0,0c-0.6-0.8-1.9-0.4-3.3,0.8c-1.4,1.1-2.1,2.2-1.4,3
		C30.1,96.8,31.4,96.6,32.8,95.4z"/>
	<path fill="none" d="M37.3,35c-0.7,0.5-0.5,1.8,0.6,3.3c1.1,1.5,2.3,2.1,3,1.6l0,0c0.8-0.6,0.5-1.8-0.6-3.3
		C39.2,35.1,38.2,34.4,37.3,35z"/>
	<path fill="none" d="M57.6,57h28.7c-4.4-8-13.2-13.9-23.2-13.9c-14.5,0-26.4,11.8-26.4,26.3c0,11.4,7.3,21.1,17.3,24.8V60.5
		C54,58.6,55.7,57,57.6,57z"/>
	<path fill="none" d="M51.3,34.4L51.3,34.4c1-0.3,1-1.6,0.5-3.4c-0.6-1.7-1.4-2.7-2.4-2.4c-0.9,0.3-1,1.6-0.5,3.3
		C49.6,33.8,50.5,34.7,51.3,34.4z"/>
	<path fill="none" d="M111.8,85.2c0,3.3,2.7,6,6,6c3.3,0,6-2.7,6-6c0-3.3-2.7-6-6-6C114.5,79.2,111.8,81.9,111.8,85.2z"/>
	<path fill="none" d="M91.6,76.5c-2.4,0-4.3,1.9-4.3,4.3c0,2.4,1.9,4.3,4.3,4.3c2.4,0,4.3-1.9,4.3-4.3
		C95.9,78.4,93.9,76.5,91.6,76.5z"/>
	<path fill="none" d="M115.2,69c0-1-0.1-3-0.3-5c-6.8,0-14.3,0-21.4,0c0.3,2,0.5,4,0.5,5h-4.6c0-1-0.2-3-0.6-5C75.1,64,63,64,61,64
		c0,4,0,20.4,0,31.6c1,0.1,1,0.1,2,0.1v4.6c-1,0-1,0-2-0.1c0,2.3,0,3.8,0,4.8c6,0,73,0,79,0c0-5,0-36,0-41c-1,0-8.7,0-18.3,0
		c0.2,2,0.3,4,0.3,5H115.2z M91.6,88.4c-4.2,0-7.7-3.5-7.7-7.7c0-4.2,3.5-7.7,7.7-7.7c4.2,0,7.7,3.5,7.7,7.7
		C99.3,85,95.8,88.4,91.6,88.4z M130.6,85.2c0,7.1-5.8,12.8-12.8,12.8c-7.1,0-12.8-5.8-12.8-12.8c0-7.1,5.8-12.8,12.8-12.8
		C124.9,72.4,130.6,78.1,130.6,85.2z"/>
	<path fill="none" d="M94.8,45.2c-1.6,1.1-2.2,2.2-1.7,3l0,0c0.6,0.8,1.8,0.5,3.4-0.5c1.5-1,2.2-2.1,1.6-2.9
		C97.6,44,96.3,44.2,94.8,45.2z"/>
	<path fill="none" d="M85.6,36.5c-1.2,1.5-1.4,2.8-0.6,3.3l0,0c0.8,0.6,1.9-0.1,3-1.6c1.1-1.4,1.4-2.7,0.6-3.3
		C87.9,34.4,86.7,35,85.6,36.5z"/>
	<path fill="none" d="M74.6,34.4c1,0.3,1.8-0.7,2.4-2.4c0.6-1.7,0.5-3-0.5-3.3c-0.9-0.3-1.8,0.6-2.4,2.4
		C73.5,32.8,73.7,34.1,74.6,34.4L74.6,34.4z"/>
	<path fill="none" d="M63,33c1,0,1.5-1.4,1.4-3.3c0-1.8-0.5-3.1-1.5-3.1c-0.9,0-1.5,1.4-1.4,3.2C61.4,31.7,62,33,63,33L63,33z"/>
	<path fill="#A7A9AC" d="M114.9,64c-0.3-2-0.7-5-1.2-7H91.4c0.9,2,1.7,5,2.1,7C100.6,64,108,64,114.9,64z"/>
	<path fill="#A7A9AC" d="M88.8,64c-0.5-3-1.4-5-2.5-7H57.6c-1.9,0-3.6,1.6-3.6,3.5v33.7c2,0.8,5,1.3,7,1.5C61,84.4,61,68,61,64
		C63,64,75.1,64,88.8,64z"/>
	<path fill="#A7A9AC" d="M143.9,57h-23.2c0.5,2,0.9,5,1.1,7c9.6,0,17.3,0,18.3,0c0,5,0,36,0,41c-6,0-73,0-79,0c0-1,0-2.5,0-4.8
		c-2-0.2-5-0.6-7-1.2v9.7c0,1.9,1.7,3.3,3.6,3.3h86.3c1.9,0,3.1-1.4,3.1-3.3V60.5C147,58.6,145.8,57,143.9,57z"/>
	<rect x="90" y="115" fill="#A7A9AC" width="11" height="7"/>
	<path fill="#D27E3D" d="M63,100.3v-4.6c-1,0-1.3,0-2-0.1c-2.4-0.2-4.6-0.7-6.8-1.5C44,90.5,36.8,80.8,36.8,69.4
		c0-14.5,11.8-26.3,26.3-26.3c10,0,18.8,5.6,23.2,13.9c1.1,2.1,2,4.2,2.5,6.6c0.4,1.8,0.6,4.3,0.6,5.3h4.6c0-1-0.2-3.5-0.5-5.3
		c-0.4-2.4-1.1-4.6-2.1-6.7c-4.8-10.9-15.6-18.4-28.3-18.4c-17,0-30.8,13.9-30.8,30.9c0,13.9,9.3,25.7,21.9,29.5
		c2.2,0.7,4.4,1.1,6.8,1.2C61.7,100.2,62,100.3,63,100.3z"/>
	<path fill="#00B3E6" d="M115.2,69h6.8c0-1-0.1-3.5-0.3-5.3c-0.2-2.3-0.6-4.5-1.1-6.7C115,31.1,91.9,11.7,64.3,11.7
		c-31.8,0-57.8,25.9-57.8,57.7c0,31.8,26.5,57.7,57.5,57.7v-6.8c-28,0-50.7-22.8-50.7-50.8c0-28,22.9-50.8,50.9-50.8
		c23.8,0,43.8,16.4,49.3,38.5c0.6,2.2,1,4.3,1.2,6.6C115,65.5,115.2,68,115.2,69z"/>
	<path fill="#00B3E6" d="M105,85.2c0,7.1,5.8,12.8,12.8,12.8c7.1,0,12.8-5.8,12.8-12.8c0-7.1-5.8-12.8-12.8-12.8
		C110.7,72.4,105,78.1,105,85.2z M123.8,85.2c0,3.3-2.7,6-6,6c-3.3,0-6-2.7-6-6c0-3.3,2.7-6,6-6C121.1,79.2,123.8,81.9,123.8,85.2z"
		/>
	<path fill="#D27E3D" d="M91.6,73c-4.2,0-7.7,3.5-7.7,7.7c0,4.2,3.5,7.7,7.7,7.7c4.2,0,7.7-3.5,7.7-7.7C99.3,76.5,95.8,73,91.6,73z
		 M91.6,85c-2.4,0-4.3-1.9-4.3-4.3c0-2.4,1.9-4.3,4.3-4.3c2.4,0,4.3,1.9,4.3,4.3C95.9,83.1,93.9,85,91.6,85z"/>
	<polygon fill="#C5C6C8" points="47.8,102.1 44.8,108.9 45.6,109.2 47.4,109.1 47.5,108.3 46.1,108.4 46.1,108.4 48.7,102.5 	"/>
	<path fill="#C5C6C8" d="M39.2,105.9c1.3,0.8,2.9,0.3,4.2-1.8c1.3-2,1.2-3.7,0-4.5l0,0c-1.3-0.9-2.9-0.2-4.2,1.9
		C37.9,103.4,37.9,105.1,39.2,105.9z M40.1,102c1-1.6,2.1-2.3,2.9-1.8l0,0c0.8,0.5,0.6,1.8-0.4,3.4c-1,1.5-2.1,2.2-2.9,1.7
		C38.8,104.7,39.1,103.5,40.1,102z"/>
	<polygon fill="#C5C6C8" points="38.2,95.6 33.3,101.1 33.9,101.7 35.7,102.1 36,101.4 34.6,101.1 34.6,101 38.9,96.3 	"/>
	<path fill="#C5C6C8" d="M33.5,96.2c1.9-1.5,2.3-3.1,1.4-4.3l0,0c-1-1.3-2.7-1.1-4.6,0.4c-1.8,1.5-2.3,3-1.4,4.2
		C29.9,97.7,31.6,97.7,33.5,96.2z M31,93.1c1.5-1.2,2.7-1.5,3.3-0.8l0,0c0.6,0.7,0,1.9-1.5,3.1c-1.4,1.2-2.7,1.4-3.3,0.7
		C28.9,95.3,29.6,94.2,31,93.1z"/>
	<polygon fill="#C5C6C8" points="31.2,86.5 24.8,90.1 25.2,90.9 26.8,91.8 27.3,91.3 26.1,90.5 26.1,90.5 31.7,87.3 	"/>
	<path fill="#C5C6C8" d="M26.5,85.5c2.3-0.9,3.2-2.3,2.7-3.6l0,0c-0.6-1.5-2.2-1.9-4.5-1c-2.2,0.8-3.2,2.1-2.6,3.6
		C22.6,85.8,24.2,86.3,26.5,85.5z M25.1,81.8c1.8-0.7,3-0.6,3.4,0.3l0,0c0.3,0.9-0.6,1.8-2.4,2.4c-1.7,0.6-3,0.5-3.3-0.4
		C22.5,83.2,23.4,82.4,25.1,81.8z"/>
	<polygon fill="#C5C6C8" points="21.5,79.2 22.2,78.9 21.3,77.8 21.3,77.8 27.6,76.5 27.4,75.6 20.2,77 20.4,77.8 	"/>
	<path fill="#C5C6C8" d="M23.3,73.2c2.4-0.1,3.7-1.1,3.7-2.6v0c0-1.6-1.5-2.5-3.9-2.4c-2.3,0.1-3.7,1-3.6,2.6
		C19.5,72.2,20.8,73.2,23.3,73.2z M23,69.2c1.9-0.1,3,0.4,3,1.4v0c0,0.9-1,1.5-2.9,1.6c-1.8,0.1-3-0.5-3-1.4
		C20,69.7,21.2,69.3,23,69.2z"/>
	<polygon fill="#C5C6C8" points="19.9,64 20.5,65.7 21.3,65.6 20.8,64.2 20.8,64.2 27.1,65 27.2,64.1 20,63.1 	"/>
	<path fill="#C5C6C8" d="M21.2,56.9c-0.4,1.4,0.6,2.8,2.9,3.5c2.3,0.7,3.9,0.1,4.3-1.3l0,0c0.5-1.5-0.6-2.8-3-3.5
		C23.2,55,21.6,55.5,21.2,56.9z M21.9,57.2c0.3-1,1.6-1.1,3.3-0.6c1.8,0.5,2.8,1.3,2.5,2.3l0,0c-0.3,0.9-1.5,1.1-3.4,0.6
		C22.6,59,21.7,58.1,21.9,57.2z"/>
	<polygon fill="#C5C6C8" points="23.7,50.6 23.8,52.4 24.6,52.6 24.5,51.2 24.5,51.1 30.3,53.9 30.7,53 24.1,49.9 	"/>
	<path fill="#C5C6C8" d="M27.3,44.4c-0.9,1.2-0.4,2.9,1.7,4.3c2,1.4,3.7,1.3,4.5,0.2l0,0c0.9-1.3,0.3-2.9-1.7-4.3
		C29.8,43.2,28.1,43.1,27.3,44.4z M32.8,48.3L32.8,48.3c-0.5,0.8-1.8,0.6-3.4-0.5c-1.5-1.1-2.1-2.2-1.6-2.9c0.6-0.9,1.8-0.5,3.3,0.5
		C32.7,46.4,33.4,47.5,32.8,48.3z"/>
	<polygon fill="#C5C6C8" points="31.6,39.2 31.1,41 31.8,41.3 32.2,40 32.2,39.9 36.8,44.4 37.5,43.7 32.2,38.6 	"/>
	<path fill="#C5C6C8" d="M36.9,34.4c-1.2,0.9-1.2,2.6,0.2,4.6c1.5,1.9,3.1,2.4,4.2,1.6l0,0c1.3-1,1.2-2.6-0.3-4.6
		C39.7,34,38.2,33.4,36.9,34.4z M41,39.9L41,39.9c-0.7,0.6-1.9,0-3-1.6c-1.1-1.5-1.3-2.7-0.6-3.3c0.8-0.6,1.9,0.1,3,1.5
		C41.4,38,41.8,39.3,41,39.9z"/>
	<polygon fill="#C5C6C8" points="43.1,31.7 46,37.4 46.9,37 43.5,30.4 42.7,30.8 41.7,32.3 42.2,32.9 43,31.7 	"/>
	<path fill="#C5C6C8" d="M51.6,35.2L51.6,35.2c1.5-0.5,2-2.1,1.2-4.5c-0.7-2.2-2-3.2-3.5-2.8c-1.4,0.5-2,2.1-1.2,4.4
		C48.8,34.6,50.2,35.6,51.6,35.2z M49.4,28.7c1-0.3,1.8,0.7,2.4,2.4c0.6,1.8,0.5,3.1-0.4,3.4l0,0c-0.9,0.3-1.8-0.6-2.4-2.4
		C48.4,30.2,48.6,29,49.4,28.7z"/>
	<polygon fill="#C5C6C8" points="55.9,27.3 57,33.7 57.9,33.5 56.7,26.3 55.9,26.4 54.4,27.5 54.8,28.2 55.9,27.3 	"/>
	<path fill="#C5C6C8" d="M62.9,33c1.6,0,2.5-1.3,2.5-3.8c0-2.3-1-3.6-2.5-3.6c-1.5,0-2.5,1.3-2.5,3.7C60.5,31.8,61.5,33,62.9,33
		L62.9,33z M61.4,29.7c0-1.8,0.5-3.1,1.4-3.1c1,0,1.5,1.3,1.5,3.1c0,1.9-0.4,3.3-1.4,3.3h0C62,33,61.4,31.6,61.4,29.7z"/>
	<polygon fill="#C5C6C8" points="69.5,33.7 70.6,26.5 69.8,26.3 68,26.9 68.1,27.7 69.5,27.2 69.5,27.2 68.5,33.6 	"/>
	<path fill="#C5C6C8" d="M74.3,35.1c1.5,0.5,2.8-0.5,3.6-2.9c0.7-2.2,0.3-3.8-1.1-4.3c-1.4-0.5-2.9,0.5-3.6,2.8
		C72.4,33,72.9,34.6,74.3,35.1L74.3,35.1z M74.1,31c0.6-1.8,1.5-2.7,2.4-2.4c1,0.3,1,1.6,0.5,3.3c-0.6,1.8-1.4,2.8-2.4,2.4l0,0
		C73.7,34.1,73.5,32.8,74.1,31z"/>
	<polygon fill="#C5C6C8" points="80.4,37.6 83.8,31.1 83,30.7 81.2,30.7 81,31.5 82.5,31.4 82.5,31.4 79.5,37.1 	"/>
	<path fill="#C5C6C8" d="M89.1,34.4c-1.2-0.9-2.9-0.5-4.3,1.5c-1.4,2-1.4,3.6-0.3,4.5l0,0c1.3,1,2.9,0.4,4.4-1.6
		C90.3,36.9,90.4,35.3,89.1,34.4z M88,38.2c-1.1,1.5-2.2,2.2-3,1.6l0,0c-0.7-0.5-0.5-1.8,0.6-3.3c1.1-1.5,2.3-2.1,3-1.5
		C89.5,35.6,89.1,36.8,88,38.2z"/>
	<polygon fill="#C5C6C8" points="89.5,44.7 94.7,39.5 94.1,38.9 92.4,38.4 92,39 93.4,39.5 93.4,39.5 88.8,44 	"/>
	<path fill="#C5C6C8" d="M94.2,44.4c-2,1.4-2.5,3-1.7,4.2l0,0c0.9,1.3,2.6,1.3,4.6-0.1c1.9-1.3,2.5-2.9,1.6-4.1
		C97.9,43.1,96.2,43,94.2,44.4z M96.5,47.7c-1.5,1.1-2.8,1.4-3.4,0.5l0,0c-0.5-0.7,0.1-1.9,1.7-3c1.5-1.1,2.8-1.2,3.3-0.5
		C98.7,45.6,98,46.6,96.5,47.7z"/>
	<polygon fill="#C5C6C8" points="95.9,54.2 102.5,51 102.1,50.3 100.7,49.2 100.1,49.7 101.3,50.5 101.3,50.6 95.5,53.4 	"/>
</g>
</svg>
